<?xml version="1.0" encoding="UTF-8"?>
<!DOCTYPE svg PUBLIC "-//W3C//DTD SVG 1.1//EN"
    "http://www.w3.org/Graphics/SVG/1.1/DTD/svg11.dtd"><svg xmlns="http://www.w3.org/2000/svg" height="720.0000" stroke-opacity="1" viewBox="0 0 450 720" font-size="1" width="450.0000" xmlns:xlink="http://www.w3.org/1999/xlink" stroke="rgb(0,0,0)" version="1.1"><defs></defs><g stroke-linejoin="miter" stroke-opacity="1.0" fill-opacity="1.0" stroke="rgb(0,0,0)" stroke-width="2.2768399153212333" fill="rgb(245,245,245)" stroke-linecap="butt" stroke-miterlimit="10.0"><path d="M 429.5455,687.2727 l -0.0000,-654.5455 h -409.0909 l -0.0000,654.5455 Z"/></g><g stroke-linejoin="miter" stroke-opacity="1.0" fill-opacity="1.0" stroke="rgb(0,0,0)" stroke-width="2.2768399153212333" fill="rgb(144,238,144)" stroke-linecap="butt" stroke-miterlimit="10.0"><path d="M 220.3782,603.4091 v -36.8182 c 0.0000,-1.1297 -0.9158,-2.0455 -2.0455 -2.0455h -27.5746 c -1.1297,-0.0000 -2.0455,0.9158 -2.0455 2.0455v 36.8182 c -0.0000,1.1297 0.9158,2.0455 2.0455 2.0455h 27.5746 c 1.1297,0.0000 2.0455,-0.9158 2.0455 -2.0455Z"/></g><g stroke-linejoin="miter" stroke-opacity="1.0" fill-opacity="1.0" stroke="rgb(0,0,0)" stroke-width="0.0" fill="rgb(0,0,0)" stroke-linecap="butt" stroke-miterlimit="10.0"><path d="M 198.9400,589.9355 ZM 204.3843,590.1391 c -1.5265,-0.0000 -3.9349,-0.7123 -3.9349 -4.1723v -5.7666 c 0.0000,-0.5258 -0.2544,-0.7463 -0.9159 -0.7463h -0.4579 c -0.0678,-0.0000 -0.1357,-0.0509 -0.1357 -0.1357v -0.3223 l 0.0339,-0.0170 c 0.0000,-0.0000 1.4756,0.0170 2.1370 0.0170c 0.6106,-0.0000 2.1879,-0.0170 2.1879 -0.0170l 0.0339,0.0170 v 0.3223 c 0.0000,0.0848 -0.0509,0.1357 -0.1357 0.1357h -0.4410 c -0.6954,-0.0000 -0.9328,0.2714 -0.9328 0.7463v 5.2069 c 0.0000,1.1024 0.0000,2.2897 0.8989 3.1886c 0.5088,0.4919 1.2042,0.8480 2.0183 0.8480c 2.8664,-0.0000 3.1208,-2.2727 3.1208 -4.1723v -5.0712 c 0.0000,-0.5258 -0.2544,-0.7463 -0.9159 -0.7463h -0.4579 c -0.0678,-0.0000 -0.1357,-0.0509 -0.1357 -0.1357v -0.3223 l 0.0339,-0.0170 c 0.0000,-0.0000 1.2042,0.0170 1.8657 0.0170c 0.6106,-0.0000 1.8657,-0.0170 1.8657 -0.0170l 0.0339,0.0170 v 0.3223 c 0.0000,0.0848 -0.0509,0.1357 -0.1357 0.1357h -0.4410 c -0.6954,-0.0000 -0.9328,0.2714 -0.9328 0.7463v 4.7659 c 0.0000,3.0190 -0.7802,5.1730 -4.2571 5.1730Z"/></g><g stroke-linejoin="miter" stroke-opacity="1.0" fill-opacity="1.0" stroke="rgb(0,0,0)" stroke-width="2.2768399153212333" fill="rgb(144,238,144)" stroke-linecap="butt" stroke-miterlimit="10.0"><path d="M 383.4294,501.1364 v -36.8182 c 0.0000,-1.1297 -0.9158,-2.0455 -2.0455 -2.0455h -26.4043 c -1.1297,-0.0000 -2.0455,0.9158 -2.0455 2.0455v 36.8182 c -0.0000,1.1297 0.9158,2.0455 2.0455 2.0455h 26.4043 c 1.1297,0.0000 2.0455,-0.9158 2.0455 -2.0455Z"/></g><g stroke-linejoin="miter" stroke-opacity="1.0" fill-opacity="1.0" stroke="rgb(0,0,0)" stroke-width="0.0" fill="rgb(0,0,0)" stroke-linecap="butt" stroke-miterlimit="10.0"><path d="M 363.1615,487.6628 ZM 366.3331,477.9104 v 3.4261 h 1.3399 c 1.4077,-0.0000 2.5271,-0.5597 2.5271 -2.0014c 0.0000,-1.7300 -1.3569,-2.0353 -2.3066 -2.0353c -1.4756,-0.0000 -1.5604,0.0509 -1.5604 0.6106ZM 366.3331,477.9104 ZM 366.3331,481.9301 v 4.5115 c 0.0000,0.5597 0.1187,0.6615 1.4925 0.6615c 2.5780,-0.0000 3.1716,-1.5434 3.1716 -2.5780c 0.0000,-1.5265 -1.0855,-2.5950 -3.0699 -2.5950h -1.5943 ZM 366.3331,481.9301 ZM 363.4498,487.3236 c 0.0000,-0.0848 0.0339,-0.1357 0.1187 -0.1357h 0.5088 c 0.6784,-0.0000 0.8820,-0.1866 0.8820 -0.7802v -8.4803 c 0.0000,-0.5767 -0.1696,-0.7463 -0.8820 -0.7463h -0.5088 c -0.0848,-0.0000 -0.1187,-0.0509 -0.1187 -0.1187v -0.3392 l 0.0339,-0.0170 l 2.1540,0.0170 c 0.0000,-0.0000 1.5434,-0.0170 2.1370 -0.0170c 3.1547,-0.0000 3.7313,1.4586 3.7313 2.5950c 0.0000,0.9328 -0.7123,1.8487 -1.5773 2.2727c 1.7978,0.4071 2.5780,1.5604 2.5780 3.1377c 0.0000,1.4586 -0.9837,2.9681 -4.3589 2.9681c -1.2212,-0.0000 -2.5102,-0.0339 -2.5102 -0.0339l -2.1540,0.0339 l -0.0339,-0.0339 v -0.3223 Z"/></g><g stroke-linejoin="miter" stroke-opacity="1.0" fill-opacity="1.0" stroke="rgb(0,0,0)" stroke-width="2.2768399153212333" fill="rgb(144,238,144)" stroke-linecap="butt" stroke-miterlimit="10.0"><path d="M 77.4847,501.1364 v -36.8182 c 0.0000,-1.1297 -0.9158,-2.0455 -2.0455 -2.0455h -28.1513 c -1.1297,-0.0000 -2.0455,0.9158 -2.0455 2.0455v 36.8182 c -0.0000,1.1297 0.9158,2.0455 2.0455 2.0455h 28.1513 c 1.1297,0.0000 2.0455,-0.9158 2.0455 -2.0455Z"/></g><g stroke-linejoin="miter" stroke-opacity="1.0" fill-opacity="1.0" stroke="rgb(0,0,0)" stroke-width="0.0" fill="rgb(0,0,0)" stroke-linecap="butt" stroke-miterlimit="10.0"><path d="M 55.4698,487.6628 ZM 59.8626,482.8630 h 3.0360 l -1.6791,-4.5285 l -1.7639,4.2232 c -0.0170,0.0678 -0.0339,0.1018 -0.0339 0.1526c 0.0000,0.1018 0.1187,0.1526 0.4410 0.1526ZM 59.8626,482.8630 ZM 57.8443,486.4417 c -0.0509,0.1187 -0.0678,0.2205 -0.0678 0.3223c 0.0000,0.2714 0.2714,0.4240 0.7802 0.4240h 0.4919 c 0.0678,-0.0000 0.1357,0.0509 0.1357 0.1357v 0.3223 l -0.0339,0.0339 c 0.0000,-0.0000 -1.6791,-0.0339 -2.0862 -0.0339c -0.4410,-0.0000 -1.5265,0.0339 -1.5265 0.0339l -0.0339,-0.0339 v -0.3223 c 0.0000,-0.0848 0.0509,-0.1357 0.1357 -0.1357h 0.2035 c 0.6954,-0.0000 1.0007,-0.3223 1.2381 -0.8989l 3.9688,-9.2775 c 0.1526,-0.3901 0.2883,-0.5088 0.4579 -0.5088c 0.3053,-0.0000 0.4410,0.1696 0.5767 0.5088l 3.4769,9.1927 c 0.2374,0.6615 0.5767,0.9837 1.2551 0.9837h 0.1866 c 0.0848,-0.0000 0.1696,0.0509 0.1696 0.1357v 0.3223 l -0.0509,0.0339 c 0.0000,-0.0000 -1.3060,-0.0339 -1.9674 -0.0339c -0.5936,-0.0000 -2.2558,0.0339 -2.2558 0.0339l -0.0170,-0.0339 v -0.3223 c 0.0000,-0.0848 0.0339,-0.1357 0.1187 -0.1357h 0.4749 c 0.5258,-0.0000 0.7972,-0.1866 0.7972 -0.4579c 0.0000,-0.0848 -0.0170,-0.1866 -0.0509 -0.2883l -1.0855,-2.9172 h -3.5787 c -0.4071,-0.0000 -0.5427,0.1018 -0.6106 0.2883Z"/></g><g stroke-linejoin="miter" stroke-opacity="1.0" fill-opacity="1.0" stroke="rgb(0,0,0)" stroke-width="2.2768399153212333" fill="rgb(144,238,144)" stroke-linecap="butt" stroke-miterlimit="10.0"><path d="M 225.6869,398.8636 v -36.8182 c 0.0000,-1.1297 -0.9158,-2.0455 -2.0455 -2.0455h -38.1920 c -1.1297,-0.0000 -2.0455,0.9158 -2.0455 2.0455v 36.8182 c -0.0000,1.1297 0.9158,2.0455 2.0455 2.0455h 38.1920 c 1.1297,0.0000 2.0455,-0.9158 2.0455 -2.0455Z"/></g><g stroke-linejoin="miter" stroke-opacity="1.0" fill-opacity="1.0" stroke="rgb(0,0,0)" stroke-width="0.0" fill="rgb(0,0,0)" stroke-linecap="butt" stroke-miterlimit="10.0"><path d="M 193.6313,385.3901 ZM 198.0241,380.5902 h 3.0360 l -1.6791,-4.5285 l -1.7639,4.2232 c -0.0170,0.0678 -0.0339,0.1018 -0.0339 0.1526c 0.0000,0.1018 0.1187,0.1526 0.4410 0.1526ZM 198.0241,380.5902 ZM 196.0058,384.1689 c -0.0509,0.1187 -0.0678,0.2205 -0.0678 0.3223c 0.0000,0.2714 0.2714,0.4240 0.7802 0.4240h 0.4919 c 0.0678,-0.0000 0.1357,0.0509 0.1357 0.1357v 0.3223 l -0.0339,0.0339 c 0.0000,-0.0000 -1.6791,-0.0339 -2.0862 -0.0339c -0.4410,-0.0000 -1.5265,0.0339 -1.5265 0.0339l -0.0339,-0.0339 v -0.3223 c 0.0000,-0.0848 0.0509,-0.1357 0.1357 -0.1357h 0.2035 c 0.6954,-0.0000 1.0007,-0.3223 1.2381 -0.8989l 3.9688,-9.2775 c 0.1526,-0.3901 0.2883,-0.5088 0.4579 -0.5088c 0.3053,-0.0000 0.4410,0.1696 0.5767 0.5088l 3.4769,9.1927 c 0.2374,0.6615 0.5767,0.9837 1.2551 0.9837h 0.1866 c 0.0848,-0.0000 0.1696,0.0509 0.1696 0.1357v 0.3223 l -0.0509,0.0339 c 0.0000,-0.0000 -1.3060,-0.0339 -1.9674 -0.0339c -0.5936,-0.0000 -2.2558,0.0339 -2.2558 0.0339l -0.0170,-0.0339 v -0.3223 c 0.0000,-0.0848 0.0339,-0.1357 0.1187 -0.1357h 0.4749 c 0.5258,-0.0000 0.7972,-0.1866 0.7972 -0.4579c 0.0000,-0.0848 -0.0170,-0.1866 -0.0509 -0.2883l -1.0855,-2.9172 h -3.5787 c -0.4071,-0.0000 -0.5427,0.1018 -0.6106 0.2883ZM 205.4189,385.3901 ZM 208.5906,375.6377 v 3.4261 h 1.3399 c 1.4077,-0.0000 2.5271,-0.5597 2.5271 -2.0014c 0.0000,-1.7300 -1.3569,-2.0353 -2.3066 -2.0353c -1.4756,-0.0000 -1.5604,0.0509 -1.5604 0.6106ZM 208.5906,375.6377 ZM 208.5906,379.6574 v 4.5115 c 0.0000,0.5597 0.1187,0.6615 1.4925 0.6615c 2.5780,-0.0000 3.1716,-1.5434 3.1716 -2.5780c 0.0000,-1.5265 -1.0855,-2.5950 -3.0699 -2.5950h -1.5943 ZM 208.5906,379.6574 ZM 205.7073,385.0509 c 0.0000,-0.0848 0.0339,-0.1357 0.1187 -0.1357h 0.5088 c 0.6784,-0.0000 0.8820,-0.1866 0.8820 -0.7802v -8.4803 c 0.0000,-0.5767 -0.1696,-0.7463 -0.8820 -0.7463h -0.5088 c -0.0848,-0.0000 -0.1187,-0.0509 -0.1187 -0.1187v -0.3392 l 0.0339,-0.0170 l 2.1540,0.0170 c 0.0000,-0.0000 1.5434,-0.0170 2.1370 -0.0170c 3.1547,-0.0000 3.7313,1.4586 3.7313 2.5950c 0.0000,0.9328 -0.7123,1.8487 -1.5773 2.2727c 1.7978,0.4071 2.5780,1.5604 2.5780 3.1377c 0.0000,1.4586 -0.9837,2.9681 -4.3589 2.9681c -1.2212,-0.0000 -2.5102,-0.0339 -2.5102 -0.0339l -2.1540,0.0339 l -0.0339,-0.0339 v -0.3223 Z"/></g><g stroke-linejoin="miter" stroke-opacity="1.0" fill-opacity="1.0" stroke="rgb(0,0,0)" stroke-width="2.2768399153212333" fill="rgb(144,238,144)" stroke-linecap="butt" stroke-miterlimit="10.0"><path d="M 220.0051,194.3182 v -36.8182 c 0.0000,-1.1297 -0.9158,-2.0455 -2.0455 -2.0455h -26.8284 c -1.1297,-0.0000 -2.0455,0.9158 -2.0455 2.0455v 36.8182 c -0.0000,1.1297 0.9158,2.0455 2.0455 2.0455h 26.8284 c 1.1297,0.0000 2.0455,-0.9158 2.0455 -2.0455Z"/></g><g stroke-linejoin="miter" stroke-opacity="1.0" fill-opacity="1.0" stroke="rgb(0,0,0)" stroke-width="0.0" fill="rgb(0,0,0)" stroke-linecap="butt" stroke-miterlimit="10.0"><path d="M 199.3131,180.8446 ZM 207.5899,171.1092 c 0.0848,-0.2035 0.1187,-0.3392 0.1187 -0.4579c 0.0000,-0.2544 -0.3562,-0.2883 -0.9328 -0.2883h -0.3053 c -0.0678,-0.0000 -0.1357,-0.0509 -0.1357 -0.1357v -0.3223 l 0.0339,-0.0170 c 0.0000,-0.0000 1.2381,0.0170 1.8996 0.0170c 0.5936,-0.0000 1.4756,-0.0170 1.4756 -0.0170l 0.0339,0.0170 v 0.3223 c 0.0000,0.0848 -0.0509,0.1357 -0.1357 0.1357c -0.6954,-0.0000 -1.0176,0.1526 -1.2381 0.7463l -3.5617,9.5488 c -0.1018,0.2544 -0.2374,0.3901 -0.4240 0.3901c -0.1696,-0.0000 -0.3053,-0.1357 -0.3901 -0.3901l -3.3412,-9.5149 c -0.2374,-0.6784 -0.6784,-0.7802 -1.2381 -0.7802c -0.0678,-0.0000 -0.1357,-0.0509 -0.1357 -0.1357v -0.3223 l 0.0339,-0.0170 c 0.0000,-0.0000 1.3229,0.0170 1.9844 0.0170c 0.5936,-0.0000 2.1031,-0.0170 2.1031 -0.0170l 0.0339,0.0170 v 0.3223 c 0.0000,0.0848 -0.0509,0.1357 -0.1357 0.1357h -0.4579 c -0.6106,-0.0000 -0.8141,0.1696 -0.8141 0.4410c 0.0000,0.1018 0.0339,0.2035 0.0678 0.3392l 2.1201,6.0380 l 0.5258,1.4756 l 0.5258,-1.4247 Z"/></g><g stroke-linejoin="miter" stroke-opacity="1.0" fill-opacity="1.0" stroke="rgb(0,0,0)" stroke-width="2.2768399153212333" fill="rgb(144,238,144)" stroke-linecap="butt" stroke-miterlimit="10.0"><path d="M 256.4111,112.5000 v -36.8182 c 0.0000,-1.1297 -0.9158,-2.0455 -2.0455 -2.0455h -99.6404 c -1.1297,-0.0000 -2.0455,0.9158 -2.0455 2.0455v 36.8182 c -0.0000,1.1297 0.9158,2.0455 2.0455 2.0455h 99.6404 c 1.1297,0.0000 2.0455,-0.9158 2.0455 -2.0455Z"/></g><g stroke-linejoin="miter" stroke-opacity="1.0" fill-opacity="1.0" stroke="rgb(0,0,0)" stroke-width="0.0" fill="rgb(0,0,0)" stroke-linecap="butt" stroke-miterlimit="10.0"><path d="M 162.9071,99.0265 ZM 166.0787,89.2910 v 4.3080 c 0.1866,0.0509 0.7802,0.0848 1.2042 0.0848c 1.6452,-0.0000 2.6119,-0.7632 2.6119 -2.5950c 0.0000,-2.1540 -1.2551,-2.5780 -2.4254 -2.5780c -1.2212,-0.0000 -1.3908,0.2883 -1.3908 0.7802ZM 166.0787,89.2910 ZM 164.7049,97.8223 v -8.5312 c 0.0000,-0.5427 -0.4579,-0.7463 -0.7463 -0.7463h -0.6615 c -0.0678,-0.0000 -0.1018,-0.0339 -0.1018 -0.1018v -0.3562 l 0.0339,-0.0170 c 0.0000,-0.0000 1.3738,0.0170 2.1540 0.0170c 0.5088,-0.0000 1.7639,-0.1526 2.2049 -0.1526c 3.1377,-0.0000 3.7483,1.8487 3.7483 2.8494c 0.0000,1.4417 -0.8820,3.4600 -3.9688 3.4600c -0.5936,-0.0000 -0.9159,-0.0509 -1.2890 -0.1696v 3.7483 c 0.0000,0.5088 0.2544,0.7293 0.9159 0.7293h 0.4579 c 0.0678,-0.0000 0.1357,0.0509 0.1357 0.1357v 0.3223 l -0.0339,0.0339 c 0.0000,-0.0000 -1.4756,-0.0339 -2.1370 -0.0339c -0.6106,-0.0000 -2.1879,0.0339 -2.1879 0.0339l -0.0339,-0.0339 v -0.3223 c 0.0000,-0.0848 0.0509,-0.1357 0.1357 -0.1357h 0.4410 c 0.6954,-0.0000 0.9328,-0.2544 0.9328 -0.7293ZM 173.9824,99.0265 ZM 179.4267,99.2300 c -1.5265,-0.0000 -3.9349,-0.7123 -3.9349 -4.1723v -5.7666 c 0.0000,-0.5258 -0.2544,-0.7463 -0.9159 -0.7463h -0.4579 c -0.0678,-0.0000 -0.1357,-0.0509 -0.1357 -0.1357v -0.3223 l 0.0339,-0.0170 c 0.0000,-0.0000 1.4756,0.0170 2.1370 0.0170c 0.6106,-0.0000 2.1879,-0.0170 2.1879 -0.0170l 0.0339,0.0170 v 0.3223 c 0.0000,0.0848 -0.0509,0.1357 -0.1357 0.1357h -0.4410 c -0.6954,-0.0000 -0.9328,0.2714 -0.9328 0.7463v 5.2069 c 0.0000,1.1024 0.0000,2.2897 0.8989 3.1886c 0.5088,0.4919 1.2042,0.8480 2.0183 0.8480c 2.8664,-0.0000 3.1208,-2.2727 3.1208 -4.1723v -5.0712 c 0.0000,-0.5258 -0.2544,-0.7463 -0.9159 -0.7463h -0.4579 c -0.0678,-0.0000 -0.1357,-0.0509 -0.1357 -0.1357v -0.3223 l 0.0339,-0.0170 c 0.0000,-0.0000 1.2042,0.0170 1.8657 0.0170c 0.6106,-0.0000 1.8657,-0.0170 1.8657 -0.0170l 0.0339,0.0170 v 0.3223 c 0.0000,0.0848 -0.0509,0.1357 -0.1357 0.1357h -0.4410 c -0.6954,-0.0000 -0.9328,0.2714 -0.9328 0.7463v 4.7659 c 0.0000,3.0190 -0.7802,5.1730 -4.2571 5.1730ZM 185.1934,99.0265 ZM 191.1126,98.3650 c 1.2890,-0.0000 1.7978,-1.0007 2.1370 -2.2218l 0.5088,0.0848 c -0.1866,0.8820 -0.3731,1.8487 -0.4410 2.7985h -4.3250 l -1.3229,-0.0170 c -0.2035,-0.0000 -2.1540,0.0339 -2.1540 0.0339l -0.0339,-0.0339 v -0.3223 c 0.0000,-0.0848 0.0678,-0.1357 0.1357 -0.1357h 0.5088 c 0.7123,-0.0000 0.8650,-0.1526 0.8650 -0.7463v -8.5142 c 0.0000,-0.5088 -0.2544,-0.7463 -0.9159 -0.7463h -0.4579 c -0.0678,-0.0000 -0.1357,-0.0509 -0.1357 -0.1357v -0.3223 l 0.0339,-0.0170 c 0.0000,-0.0000 1.4756,0.0170 2.1370 0.0170c 0.6106,-0.0000 2.1879,-0.0170 2.1879 -0.0170l 0.0339,0.0170 v 0.3223 c 0.0000,0.0848 -0.0509,0.1357 -0.1357 0.1357h -0.4410 c -0.6954,-0.0000 -0.9328,0.2714 -0.9328 0.7463v 8.2259 c 0.0000,0.5258 0.3053,0.8480 0.7972 0.8480h 1.9505 ZM 193.9111,99.0265 ZM 199.8304,98.3650 c 1.2890,-0.0000 1.7978,-1.0007 2.1370 -2.2218l 0.5088,0.0848 c -0.1866,0.8820 -0.3731,1.8487 -0.4410 2.7985h -4.3250 l -1.3229,-0.0170 c -0.2035,-0.0000 -2.1540,0.0339 -2.1540 0.0339l -0.0339,-0.0339 v -0.3223 c 0.0000,-0.0848 0.0678,-0.1357 0.1357 -0.1357h 0.5088 c 0.7123,-0.0000 0.8650,-0.1526 0.8650 -0.7463v -8.5142 c 0.0000,-0.5088 -0.2544,-0.7463 -0.9159 -0.7463h -0.4579 c -0.0678,-0.0000 -0.1357,-0.0509 -0.1357 -0.1357v -0.3223 l 0.0339,-0.0170 c 0.0000,-0.0000 1.4756,0.0170 2.1370 0.0170c 0.6106,-0.0000 2.1879,-0.0170 2.1879 -0.0170l 0.0339,0.0170 v 0.3223 c 0.0000,0.0848 -0.0509,0.1357 -0.1357 0.1357h -0.4410 c -0.6954,-0.0000 -0.9328,0.2714 -0.9328 0.7463v 8.2259 c 0.0000,0.5258 0.3053,0.8480 0.7972 0.8480h 1.9505 ZM 202.6289,99.0265 ZM 205.8005,89.2741 v 3.4261 h 1.3399 c 1.4077,-0.0000 2.5271,-0.5597 2.5271 -2.0014c 0.0000,-1.7300 -1.3569,-2.0353 -2.3066 -2.0353c -1.4756,-0.0000 -1.5604,0.0509 -1.5604 0.6106ZM 205.8005,89.2741 ZM 205.8005,93.2938 v 4.5115 c 0.0000,0.5597 0.1187,0.6615 1.4925 0.6615c 2.5780,-0.0000 3.1716,-1.5434 3.1716 -2.5780c 0.0000,-1.5265 -1.0855,-2.5950 -3.0699 -2.5950h -1.5943 ZM 205.8005,93.2938 ZM 202.9172,98.6872 c 0.0000,-0.0848 0.0339,-0.1357 0.1187 -0.1357h 0.5088 c 0.6784,-0.0000 0.8820,-0.1866 0.8820 -0.7802v -8.4803 c 0.0000,-0.5767 -0.1696,-0.7463 -0.8820 -0.7463h -0.5088 c -0.0848,-0.0000 -0.1187,-0.0509 -0.1187 -0.1187v -0.3392 l 0.0339,-0.0170 l 2.1540,0.0170 c 0.0000,-0.0000 1.5434,-0.0170 2.1370 -0.0170c 3.1547,-0.0000 3.7313,1.4586 3.7313 2.5950c 0.0000,0.9328 -0.7123,1.8487 -1.5773 2.2727c 1.7978,0.4071 2.5780,1.5604 2.5780 3.1377c 0.0000,1.4586 -0.9837,2.9681 -4.3589 2.9681c -1.2212,-0.0000 -2.5102,-0.0339 -2.5102 -0.0339l -2.1540,0.0339 l -0.0339,-0.0339 v -0.3223 ZM 212.6696,99.0265 ZM 217.0624,94.2266 h 3.0360 l -1.6791,-4.5285 l -1.7639,4.2232 c -0.0170,0.0678 -0.0339,0.1018 -0.0339 0.1526c 0.0000,0.1018 0.1187,0.1526 0.4410 0.1526ZM 217.0624,94.2266 ZM 215.0441,97.8053 c -0.0509,0.1187 -0.0678,0.2205 -0.0678 0.3223c 0.0000,0.2714 0.2714,0.4240 0.7802 0.4240h 0.4919 c 0.0678,-0.0000 0.1357,0.0509 0.1357 0.1357v 0.3223 l -0.0339,0.0339 c 0.0000,-0.0000 -1.6791,-0.0339 -2.0862 -0.0339c -0.4410,-0.0000 -1.5265,0.0339 -1.5265 0.0339l -0.0339,-0.0339 v -0.3223 c 0.0000,-0.0848 0.0509,-0.1357 0.1357 -0.1357h 0.2035 c 0.6954,-0.0000 1.0007,-0.3223 1.2381 -0.8989l 3.9688,-9.2775 c 0.1526,-0.3901 0.2883,-0.5088 0.4579 -0.5088c 0.3053,-0.0000 0.4410,0.1696 0.5767 0.5088l 3.4769,9.1927 c 0.2374,0.6615 0.5767,0.9837 1.2551 0.9837h 0.1866 c 0.0848,-0.0000 0.1696,0.0509 0.1696 0.1357v 0.3223 l -0.0509,0.0339 c 0.0000,-0.0000 -1.3060,-0.0339 -1.9674 -0.0339c -0.5936,-0.0000 -2.2558,0.0339 -2.2558 0.0339l -0.0170,-0.0339 v -0.3223 c 0.0000,-0.0848 0.0339,-0.1357 0.1187 -0.1357h 0.4749 c 0.5258,-0.0000 0.7972,-0.1866 0.7972 -0.4579c 0.0000,-0.0848 -0.0170,-0.1866 -0.0509 -0.2883l -1.0855,-2.9172 h -3.5787 c -0.4071,-0.0000 -0.5427,0.1018 -0.6106 0.2883ZM 224.4573,99.0265 ZM 230.4783,99.2300 c -3.6465,-0.0000 -5.3935,-2.8155 -5.3935 -5.5461c 0.0000,-3.3412 2.5950,-5.8175 5.4104 -5.8175c 2.0862,-0.0000 2.7476,0.7123 3.7144 0.7632c 0.0509,0.9328 0.2035,1.7469 0.3731 2.6289l -0.5088,0.0678 c -0.4410,-1.4586 -1.4247,-2.8324 -3.7653 -2.8324c -1.3399,-0.0000 -3.7483,1.4247 -3.7483 4.8677c 0.0000,2.4763 1.2720,5.1730 3.9009 5.1730c 1.5773,-0.0000 2.7307,-0.5597 3.9349 -1.8826l 0.3901,0.2544 c -1.1533,1.5095 -2.6628,2.3236 -4.3080 2.3236ZM 235.3799,99.0265 ZM 238.5516,93.7856 v 4.0366 c 0.0000,0.5088 0.2544,0.7293 0.9328 0.7293h 0.4410 c 0.0678,-0.0000 0.1357,0.0509 0.1357 0.1357v 0.3223 l -0.0339,0.0339 c 0.0000,-0.0000 -1.4586,-0.0339 -2.1370 -0.0339c -0.5936,-0.0000 -2.1710,0.0339 -2.1710 0.0339l -0.0339,-0.0339 v -0.3223 c 0.0000,-0.0848 0.0509,-0.1357 0.1187 -0.1357h 0.4579 c 0.6954,-0.0000 0.9159,-0.2544 0.9159 -0.7293v -8.5312 c 0.0000,-0.5088 -0.2544,-0.7463 -0.9159 -0.7463h -0.4579 c -0.0678,-0.0000 -0.1357,-0.0509 -0.1357 -0.1357v -0.3223 l 0.0339,-0.0170 c 0.0000,-0.0000 1.4756,0.0170 2.1370 0.0170c 0.6106,-0.0000 2.1879,-0.0170 2.1879 -0.0170l 0.0339,0.0170 v 0.3223 c 0.0000,0.0848 -0.0509,0.1357 -0.1357 0.1357h -0.4410 c -0.6954,-0.0000 -0.9328,0.2714 -0.9328 0.7463v 3.8501 c 0.6445,-0.0339 1.0007,-0.2883 1.3569 -0.6615l 2.8494,-2.9851 c 0.3053,-0.3392 0.3901,-0.4749 0.3901 -0.6445c 0.0000,-0.1018 -0.0509,-0.3053 -0.4579 -0.3053h -0.3562 c -0.0678,-0.0000 -0.1357,-0.0509 -0.1357 -0.1357v -0.3223 l 0.0339,-0.0170 c 0.0000,-0.0000 1.2890,0.0170 1.9674 0.0170c 0.5936,-0.0000 1.6282,-0.0170 1.6282 -0.0170l 0.0848,0.0170 v 0.3223 c 0.0000,0.0848 -0.0848,0.1357 -0.1866 0.1357c -0.6784,0.0848 -1.3399,0.1866 -2.1201 1.0176l -2.3745,2.5611 c -0.5597,0.5936 -0.6275,0.7123 -0.6275 0.8311c 0.0000,0.1357 0.0509,0.2544 0.2035 0.4240l 3.7144,4.4098 c 0.4240,0.5258 0.8311,0.7632 1.3229 0.7632h 0.1187 c 0.0678,-0.0000 0.1526,0.0509 0.1526 0.1357v 0.3223 l -0.0509,0.0339 c 0.0000,-0.0000 -1.2720,-0.0339 -1.9335 -0.0339c -0.6106,-0.0000 -1.0176,0.0339 -1.0176 0.0339l -0.0339,-0.0339 v -0.1018 c 0.0000,-0.3053 0.0000,-0.6954 -0.3392 -1.1194l -2.7646,-3.3582 c -0.3562,-0.4579 -0.8141,-0.6445 -1.4247 -0.6445Z"/></g><g stroke-linejoin="miter" stroke-opacity="1.0" fill-opacity="0.0" stroke="rgb(0,0,0)" stroke-width="4.269074841227312" fill="rgb(0,0,0)" stroke-linecap="butt" stroke-miterlimit="10.0"><path d="M 352.9342,492.2570 l -121.4541,75.9088 "/></g><g stroke-linejoin="miter" stroke-opacity="1.0" fill-opacity="1.0" stroke="rgb(0,0,0)" stroke-width="0.0" fill="rgb(0,0,0)" stroke-linecap="butt" stroke-miterlimit="10.0"></g><g stroke-linejoin="miter" stroke-opacity="1.0" fill-opacity="1.0" stroke="rgb(0,0,0)" stroke-width="0.0" fill="rgb(0,0,0)" stroke-linecap="butt" stroke-miterlimit="10.0"></g><g stroke-linejoin="miter" stroke-opacity="1.0" fill-opacity="1.0" stroke="rgb(0,0,0)" stroke-width="0.0" fill="rgb(0,0,0)" stroke-linecap="butt" stroke-miterlimit="10.0"><path d="M 220.3782,575.1045 l 14.7272,-3.6734 l -4.5770,-2.6705 l -0.3948,-5.2844 Z"/></g><g stroke-linejoin="miter" stroke-opacity="1.0" fill-opacity="1.0" stroke="rgb(0,0,0)" stroke-width="0.0" fill="rgb(0,0,0)" stroke-linecap="butt" stroke-miterlimit="10.0"><path d="M 230.5285,568.7606 l 0.9516,-0.5948 l 1.1313,1.8101 l -2.0829,-1.2153 l 0.9516,-0.5948 l -1.1313,-1.8101 Z"/></g><g stroke-linejoin="miter" stroke-opacity="1.0" fill-opacity="0.0" stroke="rgb(0,0,0)" stroke-width="4.269074841227312" fill="rgb(0,0,0)" stroke-linecap="butt" stroke-miterlimit="10.0"><path d="M 77.4847,494.2423 l 100.5747,71.8391 "/></g><g stroke-linejoin="miter" stroke-opacity="1.0" fill-opacity="1.0" stroke="rgb(0,0,0)" stroke-width="0.0" fill="rgb(0,0,0)" stroke-linecap="butt" stroke-miterlimit="10.0"></g><g stroke-linejoin="miter" stroke-opacity="1.0" fill-opacity="1.0" stroke="rgb(0,0,0)" stroke-width="0.0" fill="rgb(0,0,0)" stroke-linecap="butt" stroke-miterlimit="10.0"></g><g stroke-linejoin="miter" stroke-opacity="1.0" fill-opacity="1.0" stroke="rgb(0,0,0)" stroke-width="0.0" fill="rgb(0,0,0)" stroke-linecap="butt" stroke-miterlimit="10.0"><path d="M 188.7127,573.6909 l -9.0204,-12.2072 l -0.7197,5.2500 l -4.7328,2.3835 Z"/></g><g stroke-linejoin="miter" stroke-opacity="1.0" fill-opacity="1.0" stroke="rgb(0,0,0)" stroke-width="0.0" fill="rgb(0,0,0)" stroke-linecap="butt" stroke-miterlimit="10.0"><path d="M 178.9726,566.7337 l -0.9132,-0.6523 l 1.2407,-1.7369 l -0.3275,2.3892 l -0.9132,-0.6523 l -1.2407,1.7369 Z"/></g><g stroke-linejoin="miter" stroke-opacity="1.0" fill-opacity="0.0" stroke="rgb(0,0,0)" stroke-width="4.269074841227312" fill="rgb(0,0,0)" stroke-linecap="butt" stroke-miterlimit="10.0"><path d="M 225.6869,393.6680 l 116.1454,72.5909 "/></g><g stroke-linejoin="miter" stroke-opacity="1.0" fill-opacity="1.0" stroke="rgb(0,0,0)" stroke-width="0.0" fill="rgb(0,0,0)" stroke-linecap="butt" stroke-miterlimit="10.0"></g><g stroke-linejoin="miter" stroke-opacity="1.0" fill-opacity="1.0" stroke="rgb(0,0,0)" stroke-width="0.0" fill="rgb(0,0,0)" stroke-linecap="butt" stroke-miterlimit="10.0"></g><g stroke-linejoin="miter" stroke-opacity="1.0" fill-opacity="1.0" stroke="rgb(0,0,0)" stroke-width="0.0" fill="rgb(0,0,0)" stroke-linecap="butt" stroke-miterlimit="10.0"><path d="M 352.9342,473.1975 l -9.7554,-11.6282 l -0.3948,5.2844 l -4.5770,2.6705 Z"/></g><g stroke-linejoin="miter" stroke-opacity="1.0" fill-opacity="1.0" stroke="rgb(0,0,0)" stroke-width="0.0" fill="rgb(0,0,0)" stroke-linecap="butt" stroke-miterlimit="10.0"><path d="M 342.7840,466.8536 l -0.9516,-0.5948 l 1.1313,-1.8101 l -0.1797,2.4048 l -0.9516,-0.5948 l -1.1313,1.8101 Z"/></g><g stroke-linejoin="miter" stroke-opacity="1.0" fill-opacity="0.0" stroke="rgb(0,0,0)" stroke-width="4.269074841227312" fill="rgb(0,0,0)" stroke-linecap="butt" stroke-miterlimit="10.0"><path d="M 183.4040,395.5556 l -95.2660,68.0471 "/></g><g stroke-linejoin="miter" stroke-opacity="1.0" fill-opacity="1.0" stroke="rgb(0,0,0)" stroke-width="0.0" fill="rgb(0,0,0)" stroke-linecap="butt" stroke-miterlimit="10.0"></g><g stroke-linejoin="miter" stroke-opacity="1.0" fill-opacity="1.0" stroke="rgb(0,0,0)" stroke-width="0.0" fill="rgb(0,0,0)" stroke-linecap="butt" stroke-miterlimit="10.0"></g><g stroke-linejoin="miter" stroke-opacity="1.0" fill-opacity="1.0" stroke="rgb(0,0,0)" stroke-width="0.0" fill="rgb(0,0,0)" stroke-linecap="butt" stroke-miterlimit="10.0"><path d="M 77.4847,471.2122 l 14.4729,-4.5738 l -4.7328,-2.3835 l -0.7197,-5.2500 Z"/></g><g stroke-linejoin="miter" stroke-opacity="1.0" fill-opacity="1.0" stroke="rgb(0,0,0)" stroke-width="0.0" fill="rgb(0,0,0)" stroke-linecap="butt" stroke-miterlimit="10.0"><path d="M 87.2248,464.2550 l 0.9132,-0.6523 l 1.2407,1.7369 l -2.1538,-1.0847 l 0.9132,-0.6523 l -1.2407,-1.7369 Z"/></g><g stroke-linejoin="miter" stroke-opacity="1.0" fill-opacity="0.0" stroke="rgb(0,0,0)" stroke-width="4.269074841227312" fill="rgb(0,0,0)" stroke-linecap="butt" stroke-miterlimit="10.0"><path d="M 215.4545,196.3636 l 135.6573,254.3575 "/></g><g stroke-linejoin="miter" stroke-opacity="1.0" fill-opacity="1.0" stroke="rgb(0,0,0)" stroke-width="0.0" fill="rgb(0,0,0)" stroke-linecap="butt" stroke-miterlimit="10.0"></g><g stroke-linejoin="miter" stroke-opacity="1.0" fill-opacity="1.0" stroke="rgb(0,0,0)" stroke-width="0.0" fill="rgb(0,0,0)" stroke-linecap="butt" stroke-miterlimit="10.0"></g><g stroke-linejoin="miter" stroke-opacity="1.0" fill-opacity="1.0" stroke="rgb(0,0,0)" stroke-width="0.0" fill="rgb(0,0,0)" stroke-linecap="butt" stroke-miterlimit="10.0"><path d="M 357.2727,462.2727 l -2.6546,-14.9445 l -2.9782,4.3830 l -5.2990,0.0315 Z"/></g><g stroke-linejoin="miter" stroke-opacity="1.0" fill-opacity="1.0" stroke="rgb(0,0,0)" stroke-width="0.0" fill="rgb(0,0,0)" stroke-linecap="butt" stroke-miterlimit="10.0"><path d="M 351.6400,451.7113 l -0.5281,-0.9902 l 1.8834,-1.0045 l -1.3553,1.9947 l -0.5281,-0.9902 l -1.8834,1.0045 Z"/></g><g stroke-linejoin="miter" stroke-opacity="1.0" fill-opacity="0.0" stroke="rgb(0,0,0)" stroke-width="4.269074841227312" fill="rgb(0,0,0)" stroke-linecap="butt" stroke-miterlimit="10.0"><path d="M 204.5455,196.3636 l 0.0000,150.5445 "/></g><g stroke-linejoin="miter" stroke-opacity="1.0" fill-opacity="1.0" stroke="rgb(0,0,0)" stroke-width="0.0" fill="rgb(0,0,0)" stroke-linecap="butt" stroke-miterlimit="10.0"></g><g stroke-linejoin="miter" stroke-opacity="1.0" fill-opacity="1.0" stroke="rgb(0,0,0)" stroke-width="0.0" fill="rgb(0,0,0)" stroke-linecap="butt" stroke-miterlimit="10.0"></g><g stroke-linejoin="miter" stroke-opacity="1.0" fill-opacity="1.0" stroke="rgb(0,0,0)" stroke-width="0.0" fill="rgb(0,0,0)" stroke-linecap="butt" stroke-miterlimit="10.0"><path d="M 204.5455,360.0000 l 4.6904,-14.4355 l -4.6904,2.4659 l -4.6904,-2.4659 Z"/></g><g stroke-linejoin="miter" stroke-opacity="1.0" fill-opacity="1.0" stroke="rgb(0,0,0)" stroke-width="0.0" fill="rgb(0,0,0)" stroke-linecap="butt" stroke-miterlimit="10.0"><path d="M 204.5455,348.0304 l -0.0000,-1.1222 l 2.1345,-0.0000 l -2.1345,1.1222 l -0.0000,-1.1222 l -2.1345,0.0000 Z"/></g><g stroke-linejoin="miter" stroke-opacity="1.0" fill-opacity="0.0" stroke="rgb(0,0,0)" stroke-width="4.269074841227312" fill="rgb(0,0,0)" stroke-linecap="butt" stroke-miterlimit="10.0"><path d="M 195.0000,196.3636 l -118.5546,254.0455 "/></g><g stroke-linejoin="miter" stroke-opacity="1.0" fill-opacity="1.0" stroke="rgb(0,0,0)" stroke-width="0.0" fill="rgb(0,0,0)" stroke-linecap="butt" stroke-miterlimit="10.0"></g><g stroke-linejoin="miter" stroke-opacity="1.0" fill-opacity="1.0" stroke="rgb(0,0,0)" stroke-width="0.0" fill="rgb(0,0,0)" stroke-linecap="butt" stroke-miterlimit="10.0"></g><g stroke-linejoin="miter" stroke-opacity="1.0" fill-opacity="1.0" stroke="rgb(0,0,0)" stroke-width="0.0" fill="rgb(0,0,0)" stroke-linecap="butt" stroke-miterlimit="10.0"><path d="M 70.9091,462.2727 l 10.3549,-11.0977 l -5.2931,0.2510 l -3.2076,-4.2180 Z"/></g><g stroke-linejoin="miter" stroke-opacity="1.0" fill-opacity="1.0" stroke="rgb(0,0,0)" stroke-width="0.0" fill="rgb(0,0,0)" stroke-linecap="butt" stroke-miterlimit="10.0"><path d="M 75.9709,451.4260 l 0.4746,-1.0169 l 1.9343,0.9027 l -2.4088,0.1142 l 0.4746,-1.0169 l -1.9343,-0.9027 Z"/></g><g stroke-linejoin="miter" stroke-opacity="1.0" fill-opacity="1.0" stroke="rgb(0,0,0)" stroke-width="2.2768399153212333" fill="rgb(144,238,144)" stroke-linecap="butt" stroke-miterlimit="10.0"><path d="M 220.3782,603.4091 v -36.8182 c 0.0000,-1.1297 -0.9158,-2.0455 -2.0455 -2.0455h -27.5746 c -1.1297,-0.0000 -2.0455,0.9158 -2.0455 2.0455v 36.8182 c -0.0000,1.1297 0.9158,2.0455 2.0455 2.0455h 27.5746 c 1.1297,0.0000 2.0455,-0.9158 2.0455 -2.0455Z"/></g><g stroke-linejoin="miter" stroke-opacity="1.0" fill-opacity="1.0" stroke="rgb(0,0,0)" stroke-width="0.0" fill="rgb(0,0,0)" stroke-linecap="butt" stroke-miterlimit="10.0"><path d="M 198.9400,589.9355 ZM 204.3843,590.1391 c -1.5265,-0.0000 -3.9349,-0.7123 -3.9349 -4.1723v -5.7666 c 0.0000,-0.5258 -0.2544,-0.7463 -0.9159 -0.7463h -0.4579 c -0.0678,-0.0000 -0.1357,-0.0509 -0.1357 -0.1357v -0.3223 l 0.0339,-0.0170 c 0.0000,-0.0000 1.4756,0.0170 2.1370 0.0170c 0.6106,-0.0000 2.1879,-0.0170 2.1879 -0.0170l 0.0339,0.0170 v 0.3223 c 0.0000,0.0848 -0.0509,0.1357 -0.1357 0.1357h -0.4410 c -0.6954,-0.0000 -0.9328,0.2714 -0.9328 0.7463v 5.2069 c 0.0000,1.1024 0.0000,2.2897 0.8989 3.1886c 0.5088,0.4919 1.2042,0.8480 2.0183 0.8480c 2.8664,-0.0000 3.1208,-2.2727 3.1208 -4.1723v -5.0712 c 0.0000,-0.5258 -0.2544,-0.7463 -0.9159 -0.7463h -0.4579 c -0.0678,-0.0000 -0.1357,-0.0509 -0.1357 -0.1357v -0.3223 l 0.0339,-0.0170 c 0.0000,-0.0000 1.2042,0.0170 1.8657 0.0170c 0.6106,-0.0000 1.8657,-0.0170 1.8657 -0.0170l 0.0339,0.0170 v 0.3223 c 0.0000,0.0848 -0.0509,0.1357 -0.1357 0.1357h -0.4410 c -0.6954,-0.0000 -0.9328,0.2714 -0.9328 0.7463v 4.7659 c 0.0000,3.0190 -0.7802,5.1730 -4.2571 5.1730Z"/></g><g stroke-linejoin="miter" stroke-opacity="1.0" fill-opacity="1.0" stroke="rgb(0,0,0)" stroke-width="2.2768399153212333" fill="rgb(144,238,144)" stroke-linecap="butt" stroke-miterlimit="10.0"><path d="M 383.4294,501.1364 v -36.8182 c 0.0000,-1.1297 -0.9158,-2.0455 -2.0455 -2.0455h -26.4043 c -1.1297,-0.0000 -2.0455,0.9158 -2.0455 2.0455v 36.8182 c -0.0000,1.1297 0.9158,2.0455 2.0455 2.0455h 26.4043 c 1.1297,0.0000 2.0455,-0.9158 2.0455 -2.0455Z"/></g><g stroke-linejoin="miter" stroke-opacity="1.0" fill-opacity="1.0" stroke="rgb(0,0,0)" stroke-width="0.0" fill="rgb(0,0,0)" stroke-linecap="butt" stroke-miterlimit="10.0"><path d="M 363.1615,487.6628 ZM 366.3331,477.9104 v 3.4261 h 1.3399 c 1.4077,-0.0000 2.5271,-0.5597 2.5271 -2.0014c 0.0000,-1.7300 -1.3569,-2.0353 -2.3066 -2.0353c -1.4756,-0.0000 -1.5604,0.0509 -1.5604 0.6106ZM 366.3331,477.9104 ZM 366.3331,481.9301 v 4.5115 c 0.0000,0.5597 0.1187,0.6615 1.4925 0.6615c 2.5780,-0.0000 3.1716,-1.5434 3.1716 -2.5780c 0.0000,-1.5265 -1.0855,-2.5950 -3.0699 -2.5950h -1.5943 ZM 366.3331,481.9301 ZM 363.4498,487.3236 c 0.0000,-0.0848 0.0339,-0.1357 0.1187 -0.1357h 0.5088 c 0.6784,-0.0000 0.8820,-0.1866 0.8820 -0.7802v -8.4803 c 0.0000,-0.5767 -0.1696,-0.7463 -0.8820 -0.7463h -0.5088 c -0.0848,-0.0000 -0.1187,-0.0509 -0.1187 -0.1187v -0.3392 l 0.0339,-0.0170 l 2.1540,0.0170 c 0.0000,-0.0000 1.5434,-0.0170 2.1370 -0.0170c 3.1547,-0.0000 3.7313,1.4586 3.7313 2.5950c 0.0000,0.9328 -0.7123,1.8487 -1.5773 2.2727c 1.7978,0.4071 2.5780,1.5604 2.5780 3.1377c 0.0000,1.4586 -0.9837,2.9681 -4.3589 2.9681c -1.2212,-0.0000 -2.5102,-0.0339 -2.5102 -0.0339l -2.1540,0.0339 l -0.0339,-0.0339 v -0.3223 Z"/></g><g stroke-linejoin="miter" stroke-opacity="1.0" fill-opacity="1.0" stroke="rgb(0,0,0)" stroke-width="2.2768399153212333" fill="rgb(144,238,144)" stroke-linecap="butt" stroke-miterlimit="10.0"><path d="M 77.4847,501.1364 v -36.8182 c 0.0000,-1.1297 -0.9158,-2.0455 -2.0455 -2.0455h -28.1513 c -1.1297,-0.0000 -2.0455,0.9158 -2.0455 2.0455v 36.8182 c -0.0000,1.1297 0.9158,2.0455 2.0455 2.0455h 28.1513 c 1.1297,0.0000 2.0455,-0.9158 2.0455 -2.0455Z"/></g><g stroke-linejoin="miter" stroke-opacity="1.0" fill-opacity="1.0" stroke="rgb(0,0,0)" stroke-width="0.0" fill="rgb(0,0,0)" stroke-linecap="butt" stroke-miterlimit="10.0"><path d="M 55.4698,487.6628 ZM 59.8626,482.8630 h 3.0360 l -1.6791,-4.5285 l -1.7639,4.2232 c -0.0170,0.0678 -0.0339,0.1018 -0.0339 0.1526c 0.0000,0.1018 0.1187,0.1526 0.4410 0.1526ZM 59.8626,482.8630 ZM 57.8443,486.4417 c -0.0509,0.1187 -0.0678,0.2205 -0.0678 0.3223c 0.0000,0.2714 0.2714,0.4240 0.7802 0.4240h 0.4919 c 0.0678,-0.0000 0.1357,0.0509 0.1357 0.1357v 0.3223 l -0.0339,0.0339 c 0.0000,-0.0000 -1.6791,-0.0339 -2.0862 -0.0339c -0.4410,-0.0000 -1.5265,0.0339 -1.5265 0.0339l -0.0339,-0.0339 v -0.3223 c 0.0000,-0.0848 0.0509,-0.1357 0.1357 -0.1357h 0.2035 c 0.6954,-0.0000 1.0007,-0.3223 1.2381 -0.8989l 3.9688,-9.2775 c 0.1526,-0.3901 0.2883,-0.5088 0.4579 -0.5088c 0.3053,-0.0000 0.4410,0.1696 0.5767 0.5088l 3.4769,9.1927 c 0.2374,0.6615 0.5767,0.9837 1.2551 0.9837h 0.1866 c 0.0848,-0.0000 0.1696,0.0509 0.1696 0.1357v 0.3223 l -0.0509,0.0339 c 0.0000,-0.0000 -1.3060,-0.0339 -1.9674 -0.0339c -0.5936,-0.0000 -2.2558,0.0339 -2.2558 0.0339l -0.0170,-0.0339 v -0.3223 c 0.0000,-0.0848 0.0339,-0.1357 0.1187 -0.1357h 0.4749 c 0.5258,-0.0000 0.7972,-0.1866 0.7972 -0.4579c 0.0000,-0.0848 -0.0170,-0.1866 -0.0509 -0.2883l -1.0855,-2.9172 h -3.5787 c -0.4071,-0.0000 -0.5427,0.1018 -0.6106 0.2883Z"/></g><g stroke-linejoin="miter" stroke-opacity="1.0" fill-opacity="1.0" stroke="rgb(0,0,0)" stroke-width="2.2768399153212333" fill="rgb(144,238,144)" stroke-linecap="butt" stroke-miterlimit="10.0"><path d="M 225.6869,398.8636 v -36.8182 c 0.0000,-1.1297 -0.9158,-2.0455 -2.0455 -2.0455h -38.1920 c -1.1297,-0.0000 -2.0455,0.9158 -2.0455 2.0455v 36.8182 c -0.0000,1.1297 0.9158,2.0455 2.0455 2.0455h 38.1920 c 1.1297,0.0000 2.0455,-0.9158 2.0455 -2.0455Z"/></g><g stroke-linejoin="miter" stroke-opacity="1.0" fill-opacity="1.0" stroke="rgb(0,0,0)" stroke-width="0.0" fill="rgb(0,0,0)" stroke-linecap="butt" stroke-miterlimit="10.0"><path d="M 193.6313,385.3901 ZM 198.0241,380.5902 h 3.0360 l -1.6791,-4.5285 l -1.7639,4.2232 c -0.0170,0.0678 -0.0339,0.1018 -0.0339 0.1526c 0.0000,0.1018 0.1187,0.1526 0.4410 0.1526ZM 198.0241,380.5902 ZM 196.0058,384.1689 c -0.0509,0.1187 -0.0678,0.2205 -0.0678 0.3223c 0.0000,0.2714 0.2714,0.4240 0.7802 0.4240h 0.4919 c 0.0678,-0.0000 0.1357,0.0509 0.1357 0.1357v 0.3223 l -0.0339,0.0339 c 0.0000,-0.0000 -1.6791,-0.0339 -2.0862 -0.0339c -0.4410,-0.0000 -1.5265,0.0339 -1.5265 0.0339l -0.0339,-0.0339 v -0.3223 c 0.0000,-0.0848 0.0509,-0.1357 0.1357 -0.1357h 0.2035 c 0.6954,-0.0000 1.0007,-0.3223 1.2381 -0.8989l 3.9688,-9.2775 c 0.1526,-0.3901 0.2883,-0.5088 0.4579 -0.5088c 0.3053,-0.0000 0.4410,0.1696 0.5767 0.5088l 3.4769,9.1927 c 0.2374,0.6615 0.5767,0.9837 1.2551 0.9837h 0.1866 c 0.0848,-0.0000 0.1696,0.0509 0.1696 0.1357v 0.3223 l -0.0509,0.0339 c 0.0000,-0.0000 -1.3060,-0.0339 -1.9674 -0.0339c -0.5936,-0.0000 -2.2558,0.0339 -2.2558 0.0339l -0.0170,-0.0339 v -0.3223 c 0.0000,-0.0848 0.0339,-0.1357 0.1187 -0.1357h 0.4749 c 0.5258,-0.0000 0.7972,-0.1866 0.7972 -0.4579c 0.0000,-0.0848 -0.0170,-0.1866 -0.0509 -0.2883l -1.0855,-2.9172 h -3.5787 c -0.4071,-0.0000 -0.5427,0.1018 -0.6106 0.2883ZM 205.4189,385.3901 ZM 208.5906,375.6377 v 3.4261 h 1.3399 c 1.4077,-0.0000 2.5271,-0.5597 2.5271 -2.0014c 0.0000,-1.7300 -1.3569,-2.0353 -2.3066 -2.0353c -1.4756,-0.0000 -1.5604,0.0509 -1.5604 0.6106ZM 208.5906,375.6377 ZM 208.5906,379.6574 v 4.5115 c 0.0000,0.5597 0.1187,0.6615 1.4925 0.6615c 2.5780,-0.0000 3.1716,-1.5434 3.1716 -2.5780c 0.0000,-1.5265 -1.0855,-2.5950 -3.0699 -2.5950h -1.5943 ZM 208.5906,379.6574 ZM 205.7073,385.0509 c 0.0000,-0.0848 0.0339,-0.1357 0.1187 -0.1357h 0.5088 c 0.6784,-0.0000 0.8820,-0.1866 0.8820 -0.7802v -8.4803 c 0.0000,-0.5767 -0.1696,-0.7463 -0.8820 -0.7463h -0.5088 c -0.0848,-0.0000 -0.1187,-0.0509 -0.1187 -0.1187v -0.3392 l 0.0339,-0.0170 l 2.1540,0.0170 c 0.0000,-0.0000 1.5434,-0.0170 2.1370 -0.0170c 3.1547,-0.0000 3.7313,1.4586 3.7313 2.5950c 0.0000,0.9328 -0.7123,1.8487 -1.5773 2.2727c 1.7978,0.4071 2.5780,1.5604 2.5780 3.1377c 0.0000,1.4586 -0.9837,2.9681 -4.3589 2.9681c -1.2212,-0.0000 -2.5102,-0.0339 -2.5102 -0.0339l -2.1540,0.0339 l -0.0339,-0.0339 v -0.3223 Z"/></g><g stroke-linejoin="miter" stroke-opacity="1.0" fill-opacity="1.0" stroke="rgb(0,0,0)" stroke-width="2.2768399153212333" fill="rgb(144,238,144)" stroke-linecap="butt" stroke-miterlimit="10.0"><path d="M 220.0051,194.3182 v -36.8182 c 0.0000,-1.1297 -0.9158,-2.0455 -2.0455 -2.0455h -26.8284 c -1.1297,-0.0000 -2.0455,0.9158 -2.0455 2.0455v 36.8182 c -0.0000,1.1297 0.9158,2.0455 2.0455 2.0455h 26.8284 c 1.1297,0.0000 2.0455,-0.9158 2.0455 -2.0455Z"/></g><g stroke-linejoin="miter" stroke-opacity="1.0" fill-opacity="1.0" stroke="rgb(0,0,0)" stroke-width="0.0" fill="rgb(0,0,0)" stroke-linecap="butt" stroke-miterlimit="10.0"><path d="M 199.3131,180.8446 ZM 207.5899,171.1092 c 0.0848,-0.2035 0.1187,-0.3392 0.1187 -0.4579c 0.0000,-0.2544 -0.3562,-0.2883 -0.9328 -0.2883h -0.3053 c -0.0678,-0.0000 -0.1357,-0.0509 -0.1357 -0.1357v -0.3223 l 0.0339,-0.0170 c 0.0000,-0.0000 1.2381,0.0170 1.8996 0.0170c 0.5936,-0.0000 1.4756,-0.0170 1.4756 -0.0170l 0.0339,0.0170 v 0.3223 c 0.0000,0.0848 -0.0509,0.1357 -0.1357 0.1357c -0.6954,-0.0000 -1.0176,0.1526 -1.2381 0.7463l -3.5617,9.5488 c -0.1018,0.2544 -0.2374,0.3901 -0.4240 0.3901c -0.1696,-0.0000 -0.3053,-0.1357 -0.3901 -0.3901l -3.3412,-9.5149 c -0.2374,-0.6784 -0.6784,-0.7802 -1.2381 -0.7802c -0.0678,-0.0000 -0.1357,-0.0509 -0.1357 -0.1357v -0.3223 l 0.0339,-0.0170 c 0.0000,-0.0000 1.3229,0.0170 1.9844 0.0170c 0.5936,-0.0000 2.1031,-0.0170 2.1031 -0.0170l 0.0339,0.0170 v 0.3223 c 0.0000,0.0848 -0.0509,0.1357 -0.1357 0.1357h -0.4579 c -0.6106,-0.0000 -0.8141,0.1696 -0.8141 0.4410c 0.0000,0.1018 0.0339,0.2035 0.0678 0.3392l 2.1201,6.0380 l 0.5258,1.4756 l 0.5258,-1.4247 Z"/></g><g stroke-linejoin="miter" stroke-opacity="1.0" fill-opacity="1.0" stroke="rgb(0,0,0)" stroke-width="2.2768399153212333" fill="rgb(144,238,144)" stroke-linecap="butt" stroke-miterlimit="10.0"><path d="M 256.4111,112.5000 v -36.8182 c 0.0000,-1.1297 -0.9158,-2.0455 -2.0455 -2.0455h -99.6404 c -1.1297,-0.0000 -2.0455,0.9158 -2.0455 2.0455v 36.8182 c -0.0000,1.1297 0.9158,2.0455 2.0455 2.0455h 99.6404 c 1.1297,0.0000 2.0455,-0.9158 2.0455 -2.0455Z"/></g><g stroke-linejoin="miter" stroke-opacity="1.0" fill-opacity="1.0" stroke="rgb(0,0,0)" stroke-width="0.0" fill="rgb(0,0,0)" stroke-linecap="butt" stroke-miterlimit="10.0"><path d="M 162.9071,99.0265 ZM 166.0787,89.2910 v 4.3080 c 0.1866,0.0509 0.7802,0.0848 1.2042 0.0848c 1.6452,-0.0000 2.6119,-0.7632 2.6119 -2.5950c 0.0000,-2.1540 -1.2551,-2.5780 -2.4254 -2.5780c -1.2212,-0.0000 -1.3908,0.2883 -1.3908 0.7802ZM 166.0787,89.2910 ZM 164.7049,97.8223 v -8.5312 c 0.0000,-0.5427 -0.4579,-0.7463 -0.7463 -0.7463h -0.6615 c -0.0678,-0.0000 -0.1018,-0.0339 -0.1018 -0.1018v -0.3562 l 0.0339,-0.0170 c 0.0000,-0.0000 1.3738,0.0170 2.1540 0.0170c 0.5088,-0.0000 1.7639,-0.1526 2.2049 -0.1526c 3.1377,-0.0000 3.7483,1.8487 3.7483 2.8494c 0.0000,1.4417 -0.8820,3.4600 -3.9688 3.4600c -0.5936,-0.0000 -0.9159,-0.0509 -1.2890 -0.1696v 3.7483 c 0.0000,0.5088 0.2544,0.7293 0.9159 0.7293h 0.4579 c 0.0678,-0.0000 0.1357,0.0509 0.1357 0.1357v 0.3223 l -0.0339,0.0339 c 0.0000,-0.0000 -1.4756,-0.0339 -2.1370 -0.0339c -0.6106,-0.0000 -2.1879,0.0339 -2.1879 0.0339l -0.0339,-0.0339 v -0.3223 c 0.0000,-0.0848 0.0509,-0.1357 0.1357 -0.1357h 0.4410 c 0.6954,-0.0000 0.9328,-0.2544 0.9328 -0.7293ZM 173.9824,99.0265 ZM 179.4267,99.2300 c -1.5265,-0.0000 -3.9349,-0.7123 -3.9349 -4.1723v -5.7666 c 0.0000,-0.5258 -0.2544,-0.7463 -0.9159 -0.7463h -0.4579 c -0.0678,-0.0000 -0.1357,-0.0509 -0.1357 -0.1357v -0.3223 l 0.0339,-0.0170 c 0.0000,-0.0000 1.4756,0.0170 2.1370 0.0170c 0.6106,-0.0000 2.1879,-0.0170 2.1879 -0.0170l 0.0339,0.0170 v 0.3223 c 0.0000,0.0848 -0.0509,0.1357 -0.1357 0.1357h -0.4410 c -0.6954,-0.0000 -0.9328,0.2714 -0.9328 0.7463v 5.2069 c 0.0000,1.1024 0.0000,2.2897 0.8989 3.1886c 0.5088,0.4919 1.2042,0.8480 2.0183 0.8480c 2.8664,-0.0000 3.1208,-2.2727 3.1208 -4.1723v -5.0712 c 0.0000,-0.5258 -0.2544,-0.7463 -0.9159 -0.7463h -0.4579 c -0.0678,-0.0000 -0.1357,-0.0509 -0.1357 -0.1357v -0.3223 l 0.0339,-0.0170 c 0.0000,-0.0000 1.2042,0.0170 1.8657 0.0170c 0.6106,-0.0000 1.8657,-0.0170 1.8657 -0.0170l 0.0339,0.0170 v 0.3223 c 0.0000,0.0848 -0.0509,0.1357 -0.1357 0.1357h -0.4410 c -0.6954,-0.0000 -0.9328,0.2714 -0.9328 0.7463v 4.7659 c 0.0000,3.0190 -0.7802,5.1730 -4.2571 5.1730ZM 185.1934,99.0265 ZM 191.1126,98.3650 c 1.2890,-0.0000 1.7978,-1.0007 2.1370 -2.2218l 0.5088,0.0848 c -0.1866,0.8820 -0.3731,1.8487 -0.4410 2.7985h -4.3250 l -1.3229,-0.0170 c -0.2035,-0.0000 -2.1540,0.0339 -2.1540 0.0339l -0.0339,-0.0339 v -0.3223 c 0.0000,-0.0848 0.0678,-0.1357 0.1357 -0.1357h 0.5088 c 0.7123,-0.0000 0.8650,-0.1526 0.8650 -0.7463v -8.5142 c 0.0000,-0.5088 -0.2544,-0.7463 -0.9159 -0.7463h -0.4579 c -0.0678,-0.0000 -0.1357,-0.0509 -0.1357 -0.1357v -0.3223 l 0.0339,-0.0170 c 0.0000,-0.0000 1.4756,0.0170 2.1370 0.0170c 0.6106,-0.0000 2.1879,-0.0170 2.1879 -0.0170l 0.0339,0.0170 v 0.3223 c 0.0000,0.0848 -0.0509,0.1357 -0.1357 0.1357h -0.4410 c -0.6954,-0.0000 -0.9328,0.2714 -0.9328 0.7463v 8.2259 c 0.0000,0.5258 0.3053,0.8480 0.7972 0.8480h 1.9505 ZM 193.9111,99.0265 ZM 199.8304,98.3650 c 1.2890,-0.0000 1.7978,-1.0007 2.1370 -2.2218l 0.5088,0.0848 c -0.1866,0.8820 -0.3731,1.8487 -0.4410 2.7985h -4.3250 l -1.3229,-0.0170 c -0.2035,-0.0000 -2.1540,0.0339 -2.1540 0.0339l -0.0339,-0.0339 v -0.3223 c 0.0000,-0.0848 0.0678,-0.1357 0.1357 -0.1357h 0.5088 c 0.7123,-0.0000 0.8650,-0.1526 0.8650 -0.7463v -8.5142 c 0.0000,-0.5088 -0.2544,-0.7463 -0.9159 -0.7463h -0.4579 c -0.0678,-0.0000 -0.1357,-0.0509 -0.1357 -0.1357v -0.3223 l 0.0339,-0.0170 c 0.0000,-0.0000 1.4756,0.0170 2.1370 0.0170c 0.6106,-0.0000 2.1879,-0.0170 2.1879 -0.0170l 0.0339,0.0170 v 0.3223 c 0.0000,0.0848 -0.0509,0.1357 -0.1357 0.1357h -0.4410 c -0.6954,-0.0000 -0.9328,0.2714 -0.9328 0.7463v 8.2259 c 0.0000,0.5258 0.3053,0.8480 0.7972 0.8480h 1.9505 ZM 202.6289,99.0265 ZM 205.8005,89.2741 v 3.4261 h 1.3399 c 1.4077,-0.0000 2.5271,-0.5597 2.5271 -2.0014c 0.0000,-1.7300 -1.3569,-2.0353 -2.3066 -2.0353c -1.4756,-0.0000 -1.5604,0.0509 -1.5604 0.6106ZM 205.8005,89.2741 ZM 205.8005,93.2938 v 4.5115 c 0.0000,0.5597 0.1187,0.6615 1.4925 0.6615c 2.5780,-0.0000 3.1716,-1.5434 3.1716 -2.5780c 0.0000,-1.5265 -1.0855,-2.5950 -3.0699 -2.5950h -1.5943 ZM 205.8005,93.2938 ZM 202.9172,98.6872 c 0.0000,-0.0848 0.0339,-0.1357 0.1187 -0.1357h 0.5088 c 0.6784,-0.0000 0.8820,-0.1866 0.8820 -0.7802v -8.4803 c 0.0000,-0.5767 -0.1696,-0.7463 -0.8820 -0.7463h -0.5088 c -0.0848,-0.0000 -0.1187,-0.0509 -0.1187 -0.1187v -0.3392 l 0.0339,-0.0170 l 2.1540,0.0170 c 0.0000,-0.0000 1.5434,-0.0170 2.1370 -0.0170c 3.1547,-0.0000 3.7313,1.4586 3.7313 2.5950c 0.0000,0.9328 -0.7123,1.8487 -1.5773 2.2727c 1.7978,0.4071 2.5780,1.5604 2.5780 3.1377c 0.0000,1.4586 -0.9837,2.9681 -4.3589 2.9681c -1.2212,-0.0000 -2.5102,-0.0339 -2.5102 -0.0339l -2.1540,0.0339 l -0.0339,-0.0339 v -0.3223 ZM 212.6696,99.0265 ZM 217.0624,94.2266 h 3.0360 l -1.6791,-4.5285 l -1.7639,4.2232 c -0.0170,0.0678 -0.0339,0.1018 -0.0339 0.1526c 0.0000,0.1018 0.1187,0.1526 0.4410 0.1526ZM 217.0624,94.2266 ZM 215.0441,97.8053 c -0.0509,0.1187 -0.0678,0.2205 -0.0678 0.3223c 0.0000,0.2714 0.2714,0.4240 0.7802 0.4240h 0.4919 c 0.0678,-0.0000 0.1357,0.0509 0.1357 0.1357v 0.3223 l -0.0339,0.0339 c 0.0000,-0.0000 -1.6791,-0.0339 -2.0862 -0.0339c -0.4410,-0.0000 -1.5265,0.0339 -1.5265 0.0339l -0.0339,-0.0339 v -0.3223 c 0.0000,-0.0848 0.0509,-0.1357 0.1357 -0.1357h 0.2035 c 0.6954,-0.0000 1.0007,-0.3223 1.2381 -0.8989l 3.9688,-9.2775 c 0.1526,-0.3901 0.2883,-0.5088 0.4579 -0.5088c 0.3053,-0.0000 0.4410,0.1696 0.5767 0.5088l 3.4769,9.1927 c 0.2374,0.6615 0.5767,0.9837 1.2551 0.9837h 0.1866 c 0.0848,-0.0000 0.1696,0.0509 0.1696 0.1357v 0.3223 l -0.0509,0.0339 c 0.0000,-0.0000 -1.3060,-0.0339 -1.9674 -0.0339c -0.5936,-0.0000 -2.2558,0.0339 -2.2558 0.0339l -0.0170,-0.0339 v -0.3223 c 0.0000,-0.0848 0.0339,-0.1357 0.1187 -0.1357h 0.4749 c 0.5258,-0.0000 0.7972,-0.1866 0.7972 -0.4579c 0.0000,-0.0848 -0.0170,-0.1866 -0.0509 -0.2883l -1.0855,-2.9172 h -3.5787 c -0.4071,-0.0000 -0.5427,0.1018 -0.6106 0.2883ZM 224.4573,99.0265 ZM 230.4783,99.2300 c -3.6465,-0.0000 -5.3935,-2.8155 -5.3935 -5.5461c 0.0000,-3.3412 2.5950,-5.8175 5.4104 -5.8175c 2.0862,-0.0000 2.7476,0.7123 3.7144 0.7632c 0.0509,0.9328 0.2035,1.7469 0.3731 2.6289l -0.5088,0.0678 c -0.4410,-1.4586 -1.4247,-2.8324 -3.7653 -2.8324c -1.3399,-0.0000 -3.7483,1.4247 -3.7483 4.8677c 0.0000,2.4763 1.2720,5.1730 3.9009 5.1730c 1.5773,-0.0000 2.7307,-0.5597 3.9349 -1.8826l 0.3901,0.2544 c -1.1533,1.5095 -2.6628,2.3236 -4.3080 2.3236ZM 235.3799,99.0265 ZM 238.5516,93.7856 v 4.0366 c 0.0000,0.5088 0.2544,0.7293 0.9328 0.7293h 0.4410 c 0.0678,-0.0000 0.1357,0.0509 0.1357 0.1357v 0.3223 l -0.0339,0.0339 c 0.0000,-0.0000 -1.4586,-0.0339 -2.1370 -0.0339c -0.5936,-0.0000 -2.1710,0.0339 -2.1710 0.0339l -0.0339,-0.0339 v -0.3223 c 0.0000,-0.0848 0.0509,-0.1357 0.1187 -0.1357h 0.4579 c 0.6954,-0.0000 0.9159,-0.2544 0.9159 -0.7293v -8.5312 c 0.0000,-0.5088 -0.2544,-0.7463 -0.9159 -0.7463h -0.4579 c -0.0678,-0.0000 -0.1357,-0.0509 -0.1357 -0.1357v -0.3223 l 0.0339,-0.0170 c 0.0000,-0.0000 1.4756,0.0170 2.1370 0.0170c 0.6106,-0.0000 2.1879,-0.0170 2.1879 -0.0170l 0.0339,0.0170 v 0.3223 c 0.0000,0.0848 -0.0509,0.1357 -0.1357 0.1357h -0.4410 c -0.6954,-0.0000 -0.9328,0.2714 -0.9328 0.7463v 3.8501 c 0.6445,-0.0339 1.0007,-0.2883 1.3569 -0.6615l 2.8494,-2.9851 c 0.3053,-0.3392 0.3901,-0.4749 0.3901 -0.6445c 0.0000,-0.1018 -0.0509,-0.3053 -0.4579 -0.3053h -0.3562 c -0.0678,-0.0000 -0.1357,-0.0509 -0.1357 -0.1357v -0.3223 l 0.0339,-0.0170 c 0.0000,-0.0000 1.2890,0.0170 1.9674 0.0170c 0.5936,-0.0000 1.6282,-0.0170 1.6282 -0.0170l 0.0848,0.0170 v 0.3223 c 0.0000,0.0848 -0.0848,0.1357 -0.1866 0.1357c -0.6784,0.0848 -1.3399,0.1866 -2.1201 1.0176l -2.3745,2.5611 c -0.5597,0.5936 -0.6275,0.7123 -0.6275 0.8311c 0.0000,0.1357 0.0509,0.2544 0.2035 0.4240l 3.7144,4.4098 c 0.4240,0.5258 0.8311,0.7632 1.3229 0.7632h 0.1187 c 0.0678,-0.0000 0.1526,0.0509 0.1526 0.1357v 0.3223 l -0.0509,0.0339 c 0.0000,-0.0000 -1.2720,-0.0339 -1.9335 -0.0339c -0.6106,-0.0000 -1.0176,0.0339 -1.0176 0.0339l -0.0339,-0.0339 v -0.1018 c 0.0000,-0.3053 0.0000,-0.6954 -0.3392 -1.1194l -2.7646,-3.3582 c -0.3562,-0.4579 -0.8141,-0.6445 -1.4247 -0.6445Z"/></g><g stroke-linejoin="miter" stroke-opacity="1.0" fill-opacity="1.0" stroke="rgb(0,0,0)" stroke-width="2.2768399153212333" fill="rgb(255,255,0)" stroke-linecap="butt" stroke-miterlimit="10.0"><path d="M 327.2727,564.5455 c 0.0000,-11.2967 -9.1578,-20.4545 -20.4545 -20.4545c -11.2967,-0.0000 -20.4545,9.1578 -20.4545 20.4545c -0.0000,11.2967 9.1578,20.4545 20.4545 20.4545c 11.2967,0.0000 20.4545,-9.1578 20.4545 -20.4545Z"/></g><g stroke-linejoin="miter" stroke-opacity="1.0" fill-opacity="1.0" font-size="20.45454545454545px" stroke="rgb(0,0,0)" stroke-width="2.2768399153212333" fill="rgb(0,0,0)" stroke-linecap="butt" stroke-miterlimit="10.0"><text dominant-baseline="middle" transform="matrix(1.0000,0.0000,0.0000,1.0000,306.8182,564.5455)" stroke="none" text-anchor="middle">g</text></g><g stroke-linejoin="miter" stroke-opacity="1.0" fill-opacity="1.0" stroke="rgb(0,0,0)" stroke-width="2.2768399153212333" fill="rgb(255,255,0)" stroke-linecap="butt" stroke-miterlimit="10.0"><path d="M 143.1818,564.5455 c 0.0000,-11.2967 -9.1578,-20.4545 -20.4545 -20.4545c -11.2967,-0.0000 -20.4545,9.1578 -20.4545 20.4545c -0.0000,11.2967 9.1578,20.4545 20.4545 20.4545c 11.2967,0.0000 20.4545,-9.1578 20.4545 -20.4545Z"/></g><g stroke-linejoin="miter" stroke-opacity="1.0" fill-opacity="1.0" font-size="20.45454545454545px" stroke="rgb(0,0,0)" stroke-width="2.2768399153212333" fill="rgb(0,0,0)" stroke-linecap="butt" stroke-miterlimit="10.0"><text dominant-baseline="middle" transform="matrix(1.0000,0.0000,0.0000,1.0000,122.7273,564.5455)" stroke="none" text-anchor="middle">f</text></g><g stroke-linejoin="miter" stroke-opacity="1.0" fill-opacity="1.0" stroke="rgb(0,0,0)" stroke-width="2.2768399153212333" fill="rgb(255,255,0)" stroke-linecap="butt" stroke-miterlimit="10.0"><path d="M 306.8182,400.9091 c 0.0000,-11.2967 -9.1578,-20.4545 -20.4545 -20.4545c -11.2967,-0.0000 -20.4545,9.1578 -20.4545 20.4545c -0.0000,11.2967 9.1578,20.4545 20.4545 20.4545c 11.2967,0.0000 20.4545,-9.1578 20.4545 -20.4545Z"/></g><g stroke-linejoin="miter" stroke-opacity="1.0" fill-opacity="1.0" font-size="20.45454545454545px" stroke="rgb(0,0,0)" stroke-width="2.2768399153212333" fill="rgb(0,0,0)" stroke-linecap="butt" stroke-miterlimit="10.0"><text dominant-baseline="middle" transform="matrix(1.0000,0.0000,0.0000,1.0000,286.3636,400.9091)" stroke="none" text-anchor="middle">p2</text></g><g stroke-linejoin="miter" stroke-opacity="1.0" fill-opacity="1.0" stroke="rgb(0,0,0)" stroke-width="2.2768399153212333" fill="rgb(255,255,0)" stroke-linecap="butt" stroke-miterlimit="10.0"><path d="M 163.6364,400.9091 c 0.0000,-11.2967 -9.1578,-20.4545 -20.4545 -20.4545c -11.2967,-0.0000 -20.4545,9.1578 -20.4545 20.4545c -0.0000,11.2967 9.1578,20.4545 20.4545 20.4545c 11.2967,0.0000 20.4545,-9.1578 20.4545 -20.4545Z"/></g><g stroke-linejoin="miter" stroke-opacity="1.0" fill-opacity="1.0" font-size="20.45454545454545px" stroke="rgb(0,0,0)" stroke-width="2.2768399153212333" fill="rgb(0,0,0)" stroke-linecap="butt" stroke-miterlimit="10.0"><text dominant-baseline="middle" transform="matrix(1.0000,0.0000,0.0000,1.0000,143.1818,400.9091)" stroke="none" text-anchor="middle">p1</text></g><g stroke-linejoin="miter" stroke-opacity="1.0" fill-opacity="1.0" stroke="rgb(0,0,0)" stroke-width="2.2768399153212333" fill="rgb(255,255,0)" stroke-linecap="butt" stroke-miterlimit="10.0"><path d="M 347.7273,319.0909 c 0.0000,-11.2967 -9.1578,-20.4545 -20.4545 -20.4545c -11.2967,-0.0000 -20.4545,9.1578 -20.4545 20.4545c -0.0000,11.2967 9.1578,20.4545 20.4545 20.4545c 11.2967,0.0000 20.4545,-9.1578 20.4545 -20.4545Z"/></g><g stroke-linejoin="miter" stroke-opacity="1.0" fill-opacity="1.0" font-size="20.45454545454545px" stroke="rgb(0,0,0)" stroke-width="2.2768399153212333" fill="rgb(0,0,0)" stroke-linecap="butt" stroke-miterlimit="10.0"><text dominant-baseline="middle" transform="matrix(1.0000,0.0000,0.0000,1.0000,327.2727,319.0909)" stroke="none" text-anchor="middle">t</text></g><g stroke-linejoin="miter" stroke-opacity="1.0" fill-opacity="1.0" stroke="rgb(0,0,0)" stroke-width="2.2768399153212333" fill="rgb(255,255,0)" stroke-linecap="butt" stroke-miterlimit="10.0"><path d="M 204.5455,298.6364 c 0.0000,-11.2967 -9.1578,-20.4545 -20.4545 -20.4545c -11.2967,-0.0000 -20.4545,9.1578 -20.4545 20.4545c -0.0000,11.2967 9.1578,20.4545 20.4545 20.4545c 11.2967,0.0000 20.4545,-9.1578 20.4545 -20.4545Z"/></g><g stroke-linejoin="miter" stroke-opacity="1.0" fill-opacity="1.0" font-size="20.45454545454545px" stroke="rgb(0,0,0)" stroke-width="2.2768399153212333" fill="rgb(0,0,0)" stroke-linecap="butt" stroke-miterlimit="10.0"><text dominant-baseline="middle" transform="matrix(1.0000,0.0000,0.0000,1.0000,184.0909,298.6364)" stroke="none" text-anchor="middle">h</text></g><g stroke-linejoin="miter" stroke-opacity="1.0" fill-opacity="1.0" stroke="rgb(0,0,0)" stroke-width="2.2768399153212333" fill="rgb(255,255,0)" stroke-linecap="butt" stroke-miterlimit="10.0"><path d="M 122.7273,319.0909 c 0.0000,-11.2967 -9.1578,-20.4545 -20.4545 -20.4545c -11.2967,-0.0000 -20.4545,9.1578 -20.4545 20.4545c -0.0000,11.2967 9.1578,20.4545 20.4545 20.4545c 11.2967,0.0000 20.4545,-9.1578 20.4545 -20.4545Z"/></g><g stroke-linejoin="miter" stroke-opacity="1.0" fill-opacity="1.0" font-size="20.45454545454545px" stroke="rgb(0,0,0)" stroke-width="2.2768399153212333" fill="rgb(0,0,0)" stroke-linecap="butt" stroke-miterlimit="10.0"><text dominant-baseline="middle" transform="matrix(1.0000,0.0000,0.0000,1.0000,102.2727,319.0909)" stroke="none" text-anchor="middle">s</text></g></svg>